<mxfile host="app.diagrams.net" modified="2023-08-28T12:31:30.171Z" agent="Mozilla/5.0 (Windows NT 10.0; Win64; x64) AppleWebKit/537.36 (KHTML, like Gecko) Chrome/116.0.0.0 Safari/537.36" etag="Sc-lDsJTthhMjgIP_5vw" version="21.6.9" type="device">
  <diagram name="PÃ¡gina-1" id="1McYbBtYdGVDbuxUP6Oa">
    <mxGraphModel dx="737" dy="332" grid="1" gridSize="10" guides="1" tooltips="1" connect="1" arrows="1" fold="1" page="1" pageScale="1" pageWidth="827" pageHeight="1169" math="0" shadow="0">
      <root>
        <mxCell id="0" />
        <mxCell id="1" parent="0" />
        <mxCell id="feDgSvY6A5l9Jfa9g5oo-10" value="Paises" style="swimlane;fontStyle=1;align=center;verticalAlign=top;childLayout=stackLayout;horizontal=1;startSize=26;horizontalStack=0;resizeParent=1;resizeParentMax=0;resizeLast=0;collapsible=1;marginBottom=0;whiteSpace=wrap;html=1;" parent="1" vertex="1">
          <mxGeometry x="60" y="70" width="170" height="180" as="geometry" />
        </mxCell>
        <mxCell id="feDgSvY6A5l9Jfa9g5oo-11" value="+ nomePais : string&lt;br&gt;+ Populacao : float&lt;br&gt;+ area : float&lt;br&gt;+ continente : string" style="text;strokeColor=none;fillColor=none;align=left;verticalAlign=top;spacingLeft=4;spacingRight=4;overflow=hidden;rotatable=0;points=[[0,0.5],[1,0.5]];portConstraint=eastwest;whiteSpace=wrap;html=1;" parent="feDgSvY6A5l9Jfa9g5oo-10" vertex="1">
          <mxGeometry y="26" width="170" height="74" as="geometry" />
        </mxCell>
        <mxCell id="feDgSvY6A5l9Jfa9g5oo-12" value="" style="line;strokeWidth=1;fillColor=none;align=left;verticalAlign=middle;spacingTop=-1;spacingLeft=3;spacingRight=3;rotatable=0;labelPosition=right;points=[];portConstraint=eastwest;strokeColor=inherit;" parent="feDgSvY6A5l9Jfa9g5oo-10" vertex="1">
          <mxGeometry y="100" width="170" height="8" as="geometry" />
        </mxCell>
        <mxCell id="feDgSvY6A5l9Jfa9g5oo-13" value="+ perguntarNome ( ) : void&lt;br&gt;+ perguntarPop ( ) : void&lt;br&gt;+ perguntarArea ( ) : void&lt;br&gt;+ perguntarConti ( ) : void" style="text;strokeColor=none;fillColor=none;align=left;verticalAlign=top;spacingLeft=4;spacingRight=4;overflow=hidden;rotatable=0;points=[[0,0.5],[1,0.5]];portConstraint=eastwest;whiteSpace=wrap;html=1;" parent="feDgSvY6A5l9Jfa9g5oo-10" vertex="1">
          <mxGeometry y="108" width="170" height="72" as="geometry" />
        </mxCell>
      </root>
    </mxGraphModel>
  </diagram>
</mxfile>
